<?xml version="1.0" encoding="UTF-8" standalone="no"?>
<svg
   xmlns:sketch="http://www.bohemiancoding.com/sketch/ns"
   xmlns:dc="http://purl.org/dc/elements/1.1/"
   xmlns:cc="http://creativecommons.org/ns#"
   xmlns:rdf="http://www.w3.org/1999/02/22-rdf-syntax-ns#"
   xmlns:svg="http://www.w3.org/2000/svg"
   xmlns="http://www.w3.org/2000/svg"
   xmlns:sodipodi="http://sodipodi.sourceforge.net/DTD/sodipodi-0.dtd"
   xmlns:inkscape="http://www.inkscape.org/namespaces/inkscape"
   width="405px"
   height="405px"
   viewBox="0 0 405 405"
   version="1.1"
   id="svg4137"
   inkscape:version="0.91 r13725"
   sodipodi:docname="0sndcld.svg">
  <metadata
     id="metadata4155">
    <rdf:RDF>
      <cc:Work
         rdf:about="">
        <dc:format>image/svg+xml</dc:format>
        <dc:type
           rdf:resource="http://purl.org/dc/dcmitype/StillImage" />
      </cc:Work>
    </rdf:RDF>
  </metadata>
  <sodipodi:namedview
     pagecolor="#ffffff"
     bordercolor="#666666"
     borderopacity="1"
     objecttolerance="10"
     gridtolerance="10"
     guidetolerance="10"
     inkscape:pageopacity="0"
     inkscape:pageshadow="2"
     inkscape:window-width="1920"
     inkscape:window-height="1057"
     id="namedview4153"
     showgrid="false"
     inkscape:zoom="0.58271605"
     inkscape:cx="-193.06144"
     inkscape:cy="202.5"
     inkscape:window-x="-8"
     inkscape:window-y="-8"
     inkscape:window-maximized="1"
     inkscape:current-layer="Campaigns" />
  <!-- Generator: Sketch 3.3.2 (12043) - http://www.bohemiancoding.com/sketch -->
  <title
     id="title4139">soundcloud-icon</title>
  <desc
     id="desc4141">Created with Sketch.</desc>
  <defs
     id="defs4143">
    <linearGradient
       x1="206.56914"
       y1="-3.0374999"
       x2="206.56914"
       y2="400.33493"
       id="linearGradient-1"
       gradientUnits="userSpaceOnUse"
       gradientTransform="matrix(1.0216865,0,0,1.0216865,9.0506358,-17.855357)">
      <stop
         stop-color="#FD7622"
         offset="0%"
         id="stop4146" />
      <stop
         stop-color="#FC361C"
         offset="100%"
         id="stop4148" />
    </linearGradient>
  </defs>
  <g
     id="Campaigns"
     sketch:type="MSPage"
     transform="matrix(0.98292116,0,0,0.98292116,-10.616399,17.550409)"
     style="fill:none;fill-rule:evenodd;stroke:none;stroke-width:1">
    <path
       d="m 23.945173,249.20237 6.758778,-28.86905 -6.758778,-29.81692 c -0.185454,-0.88607 -1.895755,-1.56606 -3.935752,-1.56606 -2.101815,0 -3.791509,0.67999 -3.935752,1.56606 l -5.975749,29.81692 5.955143,28.84846 c 0.164849,0.92726 1.854543,1.56605 3.935752,1.56605 2.060603,0.0207 3.770904,-0.61819 3.956358,-1.54546 l 0,0 z m 42.262966,16.01089 5.707877,-44.59146 -5.707877,-68.98898 c -0.185453,-1.73091 -2.349083,-3.13213 -4.924837,-3.13213 -2.616966,0 -4.801205,1.40122 -4.904236,3.13213 l -5.069083,68.98898 5.069083,44.59146 c 0.123637,1.77212 2.28727,3.13212 4.904236,3.13212 2.575754,0 4.739384,-1.36 4.924837,-3.13212 l 0,0 z m 42.139341,-0.72121 4.7806,-43.82903 -4.7806,-91.84107 c -0.1237,-2.18424 -2.65818,-3.87394 -5.8109,-3.87394 -3.132116,0 -5.666667,1.6897 -5.790288,3.87394 l -4.224244,91.84107 4.224244,43.87025 c 0.123564,2.1224 2.658172,3.83272 5.790288,3.83272 3.15272,-0.0207 5.68727,-1.71032 5.8109,-3.87394 l 0,0 z m 42.07752,-0.6388 3.91514,-43.19023 -3.91514,-92.52109 c -0.1031,-2.53452 -3.00849,-4.55392 -6.59393,-4.55392 -3.62667,0 -6.51151,2.0194 -6.61455,4.55392 l -3.48241,92.52109 3.50302,43.19023 c 0.0824,2.53455 2.98787,4.55395 6.59394,4.55395 3.58544,-0.0207 6.49089,-1.97818 6.59393,-4.55395 l 0,0 z m 42.0363,-0.57696 3.0909,-42.57206 -3.0909,-106.10045 c -0.0824,-2.92606 -3.37939,-5.25454 -7.37696,-5.25454 -3.99757,0 -7.29454,2.36969 -7.35636,5.27514 l -2.7818,106.03864 2.7818,42.61327 c 0.0618,2.90545 3.35879,5.27516 7.35636,5.27516 3.99757,0 7.29453,-2.32849 7.37696,-5.27516 l 0,0 z m 29.4048,5.31635 c 0.16484,0 146.30283,0.0824 147.23009,0.0824 29.343,0 53.12236,-23.01693 53.12236,-51.39144 0,-28.37451 -23.77936,-51.35023 -53.12236,-51.35023 -7.27392,0 -14.19755,1.44242 -20.5236,3.97697 -4.22424,-46.28115 -44.36477,-82.588976 -93.32472,-82.588976 -11.9721,0 -23.65572,2.287266 -33.95874,6.119986 -4.03877,1.524848 -5.08969,3.049696 -5.1309,6.078784 l 0,162.993706 c 0.0411,3.15273 2.55515,5.74909 5.70787,6.07877 l 0,0 z"
       id="soundcloud"
       sketch:type="MSShapeGroup"
       inkscape:connector-curvature="0"
       style="fill:#ff7f2a" />
  </g>
</svg>
