<?xml version="1.0" encoding="UTF-8" standalone="no"?>
<!-- Created with Inkscape (http://www.inkscape.org/) -->

<svg
   xmlns:svg="http://www.w3.org/2000/svg"
   xmlns="http://www.w3.org/2000/svg"
   version="1.1"
   width="447.1525"
   height="311.66751"
   id="svg2"
   xml:space="preserve"><defs
     id="defs6"><clipPath
       id="clipPath20"><path
         d="M 357.722,249.334 0,249.334 0,0 l 357.722,0 0,249.334 z"
         id="path22" /></clipPath><clipPath
       id="clipPath54"><path
         d="M 0,0 0,0 0,0 0,0 z"
         id="path56" /></clipPath><clipPath
       id="clipPath378"><path
         d="M 0,0 0,0 0,0 0,0 z"
         id="path380" /></clipPath><clipPath
       id="clipPath686"><path
         d="M 0,0 0,0 0,0 0,0 z"
         id="path688" /></clipPath></defs><g
     transform="matrix(1.25,0,0,-1.25,0,311.6675)"
     id="g12"><g
       id="g14" /><g
       id="g16"><g
         clip-path="url(#clipPath20)"
         id="g18"><path
           d="m 175.972,205.667 c 0,0 -13.334,13 -16.334,17.333 0,0 16.334,-5.667 20.334,-7.667 0,0 -13.001,13.334 -17.334,19.334 0,0 18.001,-7 24.334,-10 0,0 -13.001,7 -23.334,24.667 0,0 61.333,-33.667 72.667,-40.667 11.334,-7 14,-8.333 14,-8.333 l -42,-25 -32.333,30.333 z"
           id="path24"
           style="fill:#3a71c1;fill-opacity:1;fill-rule:nonzero;stroke:none" /><path
           d="m 0,165.126 c 0,0 67.472,-83.792 173.46,-1.897 0,0 -32.701,28.437 -55.45,57.821 0,0 16.114,-9.005 19.431,-11.375 0,0 -9.969,11.659 -14.469,19.659 0,0 16.5,-9 20.75,-11.5 0,0 -14.5,18 -18,24 0,0 25.25,-15 76.5,-55 0,0 14.5,7 37.5,26.75 23,19.75 35.25,29.5 51.5,26.75 16.25,-2.75 28,-20.5 43.5,-45 l 23,-11.306 -26,-13.194 c 0,0 -3.25,-3.75 -5.25,-8.25 -2,-4.5 -48.75,-112.75 -126.25,-112 C 122.722,51.334 69.028,84.917 0,165.126 z"
           id="path26"
           style="fill:#4daee6;fill-opacity:1;fill-rule:nonzero;stroke:none" /><path
           d="m 316.972,198 c 0,-9.573 -6.044,-17.333 -13.5,-17.333 -7.456,0 -13.5,7.76 -13.5,17.333 0,9.573 6.044,17.333 13.5,17.333 7.456,0 13.5,-7.76 13.5,-17.333 z"
           id="path28"
           style="fill:#e6e6e6;fill-opacity:1;fill-rule:nonzero;stroke:none" /><path
           d="m 305.545,124.145 c -0.527,3.028 -1.652,5.777 -3.448,8.135 -10.875,14.28 -41.732,9.07 -68.916,-11.633 -27.188,-20.704 -40.41,-49.063 -29.535,-63.344 2.043,-2.684 4.792,-4.678 8.089,-6.011 42.325,5.537 74.453,42.89 93.81,72.853 z"
           id="path30"
           style="fill:#ace4f4;fill-opacity:1;fill-rule:nonzero;stroke:none" /><path
           d="M 306.638,3.932 C 306.638,1.761 261.12,0 204.972,0 148.822,0 103.305,1.761 103.305,3.932 c 0,2.171 45.517,3.931 101.667,3.931 56.148,0 101.666,-1.76 101.666,-3.931 z"
           id="path32"
           style="fill:#afb3bf;fill-opacity:1;fill-rule:nonzero;stroke:none" /></g></g></g></svg>